<svg height="512pt" viewBox="0 0 512 512" width="512" fill="#fff" xmlns="http://www.w3.org/2000/svg"><path d="m501.332031 0h-490.664062c-5.898438 0-10.667969 4.777344-10.667969 10.667969v490.664062c0 5.890625 4.769531 10.667969 10.667969 10.667969h490.664062c5.898438 0 10.667969-4.777344 10.667969-10.667969v-490.664062c0-5.890625-4.769531-10.667969-10.667969-10.667969zm-480 21.332031h469.335938v64h-469.335938zm0 469.335938v-384h469.335938v384zm0 0"/><path d="m42.667969 42.667969h21.332031v21.332031h-21.332031zm0 0"/><path d="m85.332031 42.667969h21.335938v21.332031h-21.335938zm0 0"/><path d="m128 42.667969h21.332031v21.332031h-21.332031zm0 0"/><path d="m426.667969 42.667969h42.664062v21.332031h-42.664062zm0 0"/><path d="m384 42.667969h21.332031v21.332031h-21.332031zm0 0"/><path d="m64 341.332031h64v21.335938h-64zm0 0"/><path d="m149.332031 341.332031h21.335938v21.335938h-21.335938zm0 0"/><path d="m192 341.332031h21.332031v21.335938h-21.332031zm0 0"/><path d="m298.667969 384h64v21.332031h-64zm0 0"/><path d="m384 384h21.332031v21.332031h-21.332031zm0 0"/><path d="m426.667969 384h21.332031v21.332031h-21.332031zm0 0"/><path d="m234.667969 426.667969h64v21.332031h-64zm0 0"/><path d="m320 426.667969h21.332031v21.332031h-21.332031zm0 0"/><path d="m362.667969 426.667969h21.332031v21.332031h-21.332031zm0 0"/><path d="m64 384h64v21.332031h-64zm0 0"/><path d="m192 384h85.332031v21.332031h-85.332031zm0 0"/><path d="m149.332031 384h21.335938v21.332031h-21.335938zm0 0"/><path d="m405.332031 426.667969h42.667969v21.332031h-42.667969zm0 0"/><path d="m106.667969 426.667969h106.664062v21.332031h-106.664062zm0 0"/><path d="m64 426.667969h21.332031v21.332031h-21.332031zm0 0"/><path d="m362.667969 341.332031h85.332031v21.335938h-85.332031zm0 0"/><path d="m234.667969 341.332031h106.664062v21.335938h-106.664062zm0 0"/><path d="m214.835938 261.164062 64.011718-106.652343 18.292969 10.976562-64.011719 106.65625zm0 0"/><path d="m349.664062 273.332031 42.667969-53.332031c3.113281-3.894531 3.113281-9.429688 0-13.324219l-42.667969-53.332031-16.660156 13.324219 37.34375 46.664062-37.34375 46.667969zm0 0"/><path d="m162.335938 273.332031 16.660156-13.320312-37.34375-46.679688 37.34375-46.664062-16.660156-13.324219-42.667969 53.332031c-3.113281 3.894531-3.113281 9.429688 0 13.324219zm0 0"/><path d="m64 298.667969h149.332031v21.332031h-149.332031zm0 0"/><path d="m234.667969 298.667969h21.332031v21.332031h-21.332031zm0 0"/><path d="m277.332031 298.667969h21.335938v21.332031h-21.335938zm0 0"/></svg>